# xmcd
#
# Track frame offsets:
#	150
#	15953
#	31751
#	48985
#	65179
#	83916
#	100515
#	120502
#	140320
#	157215
#	175986
#	190767
#	210174
#	224954
#	244896
#	263883
#	285293
#	301667
#	321474
#	343054
#
# Disc length: 4754 seconds
#
# Revision: 0
# Processed by: cddbd v1.4PL0 Copyright (c) Steve Scherf et al.
# Submitted via: audiograbber 1.81.03
#
DISCID=1c129014
DTITLE=Enrique Iglesias - The Best
DYEAR=1900
DGENRE=Latin
TTITLE0=Escape
TTITLE1=Rhythm Divine
TTITLE2=Don,t Turn Off The Lights
TTITLE3=Bailamos
TTITLE4=Love To See You Cry
TTITLE5=Be With You
TTITLE6=Hero
TTITLE7=Could I Have This Kiss Forever (feat. Whitney Houston)
TTITLE8=I Will Survive
TTITLE9=Sad Eyes
TTITLE10=Making Love For Fun
TTITLE11=You're My #1 (feat. Alsoue)
TTITLE12=Maybe
TTITLE13=I Have Always Loved You
TTITLE14=One Night Stand
TTITLE15=I'm Your Man
TTITLE16=She Bet The One
TTITLE17=Oyeme
TTITLE18=World Crashes Down
TTITLE19=Alabao
EXTD=
EXTT0=
EXTT1=
EXTT2=
EXTT3=
EXTT4=
EXTT5=
EXTT6=
EXTT7=
EXTT8=
EXTT9=
EXTT10=
EXTT11=
EXTT12=
EXTT13=
EXTT14=
EXTT15=
EXTT16=
EXTT17=
EXTT18=
EXTT19=
PLAYORDER=
